<svg id="Layer_1" enable-background="new 0 0 497 497" height="512" viewBox="0 0 497 497" width="512" xmlns="http://www.w3.org/2000/svg"><g><circle cx="248.5" cy="248.5" fill="#ffb5c5" r="248.5"/><circle cx="248.5" cy="248.5" fill="#ffb5c5" r="248.5"/><g><path d="m306.506 257.227s-188.82 20.307-304.184 25.245c13.162 96.265 81.441 174.978 172.001 203.264 82.643-80.663 132.183-228.509 132.183-228.509z" fill="#7191f0"/><path d="m494.696 214.65c-10.881-79.872-59.696-147.677-127.715-184.64-8.64 58.949-26.075 145.028-60.475 227.217 0 0 95.495-17.097 188.19-42.577z" fill="#ffe940"/><g><path d="m465.633 222.358c9.644-2.471 19.368-5.043 29.063-7.708-10.881-79.872-59.696-147.677-127.715-184.64-.81 5.525-1.697 11.289-2.668 17.266 55.58 40.345 93.798 103.141 101.32 175.082z" fill="#f5dc1d"/></g><path d="m306.506 257.227s40.313 67.853 95.898 186.382c57.615-45.509 94.596-115.988 94.596-195.109 0-11.484-.796-22.78-2.304-33.85-92.695 25.48-188.19 42.577-188.19 42.577z" fill="#ff9000"/><g><path d="m494.696 214.65c-9.695 2.665-19.419 5.237-29.063 7.708.898 8.592 1.367 17.312 1.367 26.142 0 68.959-28.095 131.351-73.456 176.372 2.907 6.099 5.86 12.34 8.86 18.737 57.615-45.509 94.596-115.988 94.596-195.109 0-11.484-.796-22.78-2.304-33.85z" fill="#ed8600"/></g><path d="m174.322 485.737c23.427 7.317 48.341 11.263 74.178 11.263 58.122 0 111.58-19.959 153.904-53.391-55.585-118.528-95.898-186.382-95.898-186.382s-49.54 147.846-132.184 228.51z" fill="#91edff"/><g><path d="m233.399 496.543c4.996.3 10.03.457 15.101.457 58.122 0 111.58-19.959 153.904-53.391-3-6.397-5.953-12.638-8.86-18.737-41.625 41.313-97.791 67.982-160.145 71.671z" fill="#79e7fc"/></g><path d="m306.506 257.227c34.4-82.189 51.835-168.268 60.475-227.217-35.218-19.138-75.58-30.01-118.481-30.01-52.894 0-101.918 16.538-142.21 44.708 118.333 88.841 200.216 212.519 200.216 212.519z" fill="#f26e91"/><g><path d="m366.981 30.01c-35.218-19.138-75.58-30.01-118.481-30.01-5.077 0-10.118.156-15.12.456 48.76 2.88 93.733 19.817 130.933 46.82.971-5.977 1.858-11.741 2.668-17.266z" fill="#e05c7e"/></g></g><circle cx="306.506" cy="257.227" fill="#fff" r="58.006"/><path d="m306.506 199.222c-5.189 0-10.214.691-15 1.969 24.763 6.613 43.006 29.19 43.006 56.037s-18.243 49.424-43.006 56.037c4.786 1.278 9.811 1.969 15 1.969 32.036 0 58.006-25.97 58.006-58.006s-25.97-58.006-58.006-58.006z" fill="#ebf9ff"/></g></svg>