<svg height="512pt" viewBox="0 -24 512 511" width="512pt" xmlns="http://www.w3.org/2000/svg"><path d="m253.734375 15.738281 27.039063 101.40625s24.257812 12.902344 33.03125-13.9375c8.773437-26.839843.773437-92.386719.773437-92.386719-29.675781-25.804687-60.84375 4.917969-60.84375 4.917969" fill="#ff8087"/><path d="m115.613281 108.882812h16.515625v57.808594h-16.515625zm0 0" fill="#c9c6ca"/><path d="m247.742188 108.882812h16.515624v57.808594h-16.515624zm0 0" fill="#c9c6ca"/><path d="m115.613281 108.882812h16.515625v24.777344h-16.515625zm0 0" fill="#b7b2b8"/><path d="m247.742188 108.882812h16.515624v24.777344h-16.515624zm0 0" fill="#b7b2b8"/><path d="m502.703125 307.898438-31.992187-25.59375-20.984376-111.921876c-2.199218-11.71875-12.429687-20.207031-24.351562-20.207031h-408.859375c-9.121094 0-16.515625 7.394531-16.515625 16.515625v247.742188c0 4.558594 3.695312 8.257812 8.257812 8.257812h495.484376c4.5625 0 8.257812-3.699218 8.257812-8.257812v-87.191406c0-7.523438-3.421875-14.640626-9.296875-19.34375zm0 0" fill="#edebed"/><path d="m330.324219 282.304688h140.386719l-15.484376-82.582032h-124.902343c-9.121094 0-16.515625 7.394532-16.515625 16.515625v49.546875c-.003906 9.125 7.390625 16.519532 16.515625 16.519532zm0 0" fill="#c4deff"/><path d="m330.324219 216.238281h128l-3.097657-16.515625h-124.902343c-9.121094 0-16.515625 7.394532-16.515625 16.515625v16.515625c-.003906-9.121094 7.390625-16.515625 16.515625-16.515625zm0 0" fill="#a5cdff"/><path d="m49.546875 191.464844h214.710937v90.839844h-214.710937zm0 0" fill="#c4deff"/><path d="m264.257812 191.464844h-214.710937v40.117187c2.65625.691407 5.390625 1.171875 8.257813 1.171875 6.011718 0 11.65625-1.613281 16.515624-4.429687 4.863282 2.816406 10.503907 4.429687 16.519532 4.429687 6.011718 0 11.652344-1.613281 16.515625-4.429687 4.859375 2.816406 10.503906 4.429687 16.515625 4.429687 6.011718 0 11.652344-1.613281 16.515625-4.429687 4.859375 2.816406 10.503906 4.429687 16.515625 4.429687 6.011718 0 11.65625-1.613281 16.515625-4.429687 4.859375 2.816406 10.503906 4.429687 16.515625 4.429687 6.011718 0 11.65625-1.613281 16.515625-4.429687 4.863281 2.816406 10.503906 4.429687 16.515625 4.429687 6.011718 0 11.65625-1.613281 16.515625-4.429687 4.863281 2.816406 10.503906 4.429687 16.515625 4.429687 2.871094 0 5.605468-.480468 8.261718-1.171875zm0 0" fill="#a5cdff"/><path d="m49.546875 282.304688h214.710937v33.03125h-214.710937zm0 0" fill="#dbd9dc"/><path d="m16.515625 150.175781c-9.121094 0-16.515625 7.394531-16.515625 16.515625v33.03125h455.226562l-5.5-29.339844c-2.199218-11.71875-12.429687-20.210937-24.351562-20.210937h-408.859375zm0 0" fill="#ffedb1"/><path d="m16.515625 364.882812v-214.707031c-9.121094 0-16.515625 7.394531-16.515625 16.515625v247.742188c0 4.558594 3.695312 8.257812 8.257812 8.257812h495.484376c4.5625 0 8.257812-3.699218 8.257812-8.257812v-8.257813h-454.195312c-22.800782 0-41.289063-18.488281-41.289063-41.292969zm0 0" fill="#dbd9dc"/><path d="m503.742188 422.691406h-495.484376c-4.5625 0-8.257812-3.699218-8.257812-8.257812v-49.550782h512v49.550782c0 4.558594-3.695312 8.257812-8.257812 8.257812zm0 0" fill="#ff9ba0"/><path d="m356.128906 15.980469s-21.757812-19.253907-41.082031-7.292969c-15.304687 9.46875-26.53125 33.617188-6.402344 84.714844 2.433594 6.179687 3.539063 13.25 1.664063 17.425781l26.722656-7.105469zm0 0" fill="#ff9ba0"/><path d="m272.515625 323.59375h-231.226563c-4.558593 0-8.257812-3.695312-8.257812-8.257812 0-4.558594 3.699219-8.257813 8.257812-8.257813h231.226563c4.5625 0 8.257813 3.699219 8.257813 8.257813 0 4.5625-3.695313 8.257812-8.257813 8.257812zm0 0" fill="#b7b2b8"/><path d="m41.289062 183.207031v16.515625c0 9.121094 7.394532 16.515625 16.515626 16.515625 9.121093 0 16.515624-7.394531 16.515624-16.515625 0 9.121094 7.398438 16.515625 16.519532 16.515625s16.515625-7.394531 16.515625-16.515625c0 9.121094 7.394531 16.515625 16.515625 16.515625s16.515625-7.394531 16.515625-16.515625c0 9.121094 7.394531 16.515625 16.515625 16.515625s16.515625-7.394531 16.515625-16.515625c0 9.121094 7.394531 16.515625 16.515625 16.515625s16.515625-7.394531 16.515625-16.515625c0 9.121094 7.394531 16.515625 16.515625 16.515625s16.515625-7.394531 16.515625-16.515625c0 9.121094 7.398437 16.515625 16.515625 16.515625 9.121094 0 16.519531-7.394531 16.519531-16.515625v-16.515625zm0 0" fill="#ff8087"/><path d="m478.964844 364.882812v-16.515624c0-9.121094 7.394531-16.515626 16.515625-16.515626h16.515625v33.03125zm0 0" fill="#ffe17d"/><path d="m280.773438 117.144531-27.039063-101.40625-161.789063 91.445313c-4.765624 2.691406-2.855468 9.960937 2.621094 9.960937zm0 0" fill="#f7d291"/><path d="m480.738281 406.175781c-5 0-9.6875-2.296875-12.8125-6.199219-9.050781-11.304687-22.894531-18.574218-38.507812-18.574218s-29.453125 7.269531-38.503907 18.574218c-3.125 3.902344-7.816406 6.199219-12.816406 6.199219h-202.90625c-5 0-9.691406-2.296875-12.816406-6.199219-9.050781-11.304687-22.890625-18.574218-38.503906-18.574218-15.613282 0-29.457032 7.269531-38.503906 18.574218-3.125 3.902344-7.816407 6.199219-12.816407 6.199219h-14.746093c-22.800782 0-41.289063-18.488281-41.289063-41.292969h-16.515625v49.550782c0 4.558594 3.695312 8.257812 8.257812 8.257812h495.484376c4.5625 0 8.257812-3.699218 8.257812-8.257812v-8.257813zm0 0" fill="#ff8087"/><path d="m156.902344 430.949219c0 18.242187-14.789063 33.03125-33.03125 33.03125-18.242188 0-33.03125-14.789063-33.03125-33.03125 0-18.242188 14.789062-33.03125 33.03125-33.03125 18.242187 0 33.03125 14.789062 33.03125 33.03125zm0 0" fill="#5d5360"/><path d="m140.386719 430.949219c0 9.121093-7.394531 16.515625-16.515625 16.515625s-16.515625-7.394532-16.515625-16.515625c0-9.121094 7.394531-16.515625 16.515625-16.515625s16.515625 7.394531 16.515625 16.515625zm0 0" fill="#dbd9dc"/><path d="m462.449219 430.949219c0 18.242187-14.789063 33.03125-33.03125 33.03125-18.242188 0-33.03125-14.789063-33.03125-33.03125 0-18.242188 14.789062-33.03125 33.03125-33.03125 18.242187 0 33.03125 14.789062 33.03125 33.03125zm0 0" fill="#5d5360"/><path d="m445.933594 430.949219c0 9.121093-7.394532 16.515625-16.515625 16.515625-9.121094 0-16.515625-7.394532-16.515625-16.515625 0-9.121094 7.394531-16.515625 16.515625-16.515625 9.121093 0 16.515625 7.394531 16.515625 16.515625zm0 0" fill="#dbd9dc"/><path d="m495.484375 331.851562v33.03125h-16.515625v-16.515624c0-9.121094 7.394531-16.515626 16.515625-16.515626zm0 0" fill="#ffc369"/><path d="m0 166.691406v33.03125h16.515625v-49.546875c-9.121094 0-16.515625 7.394531-16.515625 16.515625zm0 0" fill="#ffe17d"/><path d="m41.289062 150.175781h231.226563v33.03125h-231.226563zm0 0" fill="#ff9ba0"/><path d="m338.582031 199.722656h16.515625v82.582032h-16.515625zm0 0" fill="#edebed"/><path d="m338.582031 199.722656h16.515625v16.515625h-16.515625zm0 0" fill="#dbd9dc"/><path d="m421.160156 199.722656h16.515625v82.582032h-16.515625zm0 0" fill="#edebed"/><path d="m421.160156 199.722656h16.515625v16.515625h-16.515625zm0 0" fill="#dbd9dc"/><path d="m253.734375 15.738281-22.105469 12.492188 9.410156 35.289062c4.195313 15.726563-7.65625 31.15625-23.9375 31.15625h-103.03125l-22.125 12.507813c-4.765624 2.691406-2.851562 9.960937 2.621094 9.960937h186.207032zm0 0" fill="#f0c382"/><path d="m280.765625 125.40625c-3.644531 0-6.984375-2.441406-7.96875-6.132812l-27.039063-101.410157c-1.175781-4.40625 1.445313-8.929687 5.847657-10.109375 4.402343-1.152344 8.925781 1.441406 10.105469 5.851563l27.039062 101.410156c1.175781 4.40625-1.445312 8.929687-5.847656 10.105469-.71875.191406-1.425782.285156-2.136719.285156zm0 0" fill="#f7d291"/><path d="m310.308594 110.828125c38.65625 14.417969 39.628906-33.597656 51.324218-51.492187 8.175782-12.503907 19.128907-19.496094 26.601563-23.097657 4.257813-2.050781 5.148437-7.695312 1.742187-10.972656-7.59375-7.300781-22.410156-18.113281-39.007812-13.15625-19.871094 5.9375-23.226562 29.9375-21.9375 43.613281 4.308594 45.675782-18.722656 55.105469-18.722656 55.105469zm0 0" fill="#ff9ba0"/><path d="m325.253906 113.410156s23.226563-9.605468 18.917969-55.277344c-1.289063-13.679687 2.066406-37.679687 21.933594-43.613281 1.992187-.59375 4.058593-.988281 5.988281-1.160156-6.308594-2.464844-13.5625-3.507813-21.125-1.25-19.871094 5.9375-23.226562 29.9375-21.9375 43.613281 4.3125 45.675782-18.722656 55.105469-18.722656 55.105469 5.921875 2.207031 10.667968 2.894531 14.945312 2.582031-.019531-.007812.019532.007813 0 0zm0 0" fill="#ff8087"/></svg>