<svg id="Capa_1" enable-background="new 0 0 496.567 496.567" height="512" viewBox="0 0 496.567 496.567" width="512" xmlns="http://www.w3.org/2000/svg"><g><path d="m265.833 49.777-1.81-3.82c-1.12-6.39-1.23-12.97-.28-19.49l1.97-13.58c1.21-8.38-6.91-15.05-14.9-12.23l-5.7 2.02c-31.13 11.01-53.1 39.02-56.37 71.88l.31 1.73s2.626 21.885 2.978 21.651c.352-.235 78.934-24.747 78.934-24.747z" fill="#ffbfe7"/><path d="m205.824 76.287-.31-1.73c3.269-32.846 25.227-60.852 56.335-71.872-2.886-2.445-6.977-3.46-11.036-2.028l-5.7 2.02c-31.13 11.01-53.1 39.02-56.37 71.88l.31 1.73s2.626 21.885 2.978 21.651c.101-.067 6.639-2.132 15.907-5.041-.889-6.398-2.114-16.61-2.114-16.61z" fill="#fd94d3"/><path d="m295.213 77.277-.06-.37v-17.46c0-1.98-.38-3.92-1.11-5.72-.72-1.81-1.79-3.47-3.16-4.9-2.98-3.11-7.02-4.74-11.1-4.74-2.72 0-5.45.72-7.9 2.19-2 1.2-4.01 2.37-6.05 3.5-22.3 12.49-46.57 21.16-71.77 25.62l-5.01.89-6.05 1.07c-4.1.72-7.96 2.24-11.42 4.42-3.44 2.17-6.48 5.02-8.89 8.4-5.94 8.31-7.51 18.97-4.24 28.65l4.87 14.39 7.607 19.999 128.2-49.381z" fill="#fd94d3"/><g><g id="XMLID_151_"><g><g><path d="m192.563 127.104-4.87-14.39c-3.27-9.68-1.7-20.34 4.24-28.65 2.41-3.38 5.45-6.23 8.89-8.4 1.809-1.14 3.729-2.094 5.733-2.853-4.136.973-8.301 1.843-12.493 2.585l-5.01.89-6.05 1.07c-4.1.72-7.96 2.24-11.42 4.42-3.44 2.17-6.48 5.02-8.89 8.4-5.94 8.31-7.51 18.97-4.24 28.65l4.87 14.39 7.607 19.999 27.531-10.605z" fill="#fe74c5"/></g><path d="m304.303 77.517c-1.69-.41-3.4-.61-5.1-.61-1.34 0-2.68.12-3.99.37-2.89.54-5.67 1.67-8.15 3.35-34.47 23.28-72.96 39.96-113.52 49.19l-2.83.65c-2.6.59-5.08 1.52-7.39 2.75-1.43.76-2.8 1.64-4.08 2.62-3.36 2.56-6.17 5.84-8.2 9.65-5.24 9.83-4.56 21.77 1.77 30.93l4.63 6.7 5.704 17.498 156.125-59.837 1.131-27.362.46-14.12c.01-.24.01-.47.01-.7 0-9.979-6.82-18.719-16.57-21.079z" fill="#ffbfe7"/><path d="m350.093 125.457c-5.83-8.18-15.02-12.53-24.32-12.53-1.79 0-3.59.16-5.37.49-4.45.81-8.78 2.66-12.63 5.58l-1.67 1.27c-32.2 24.43-69.02 42.08-108.24 51.88l-34.94 8.74c-1.96.49-3.8 1.25-5.48 2.23-6.34 3.69-10.44 10.53-10.44 18.15v15.19l2.48 20.95 7.294 19.696 182.635-27.806 5.201-63.41c7.22-5.87 11.01-14.46 11.01-23.16 0-5.99-1.81-12.04-5.53-17.27z" fill="#fd94d3"/><g><path d="m189.821 173.756-4.63-6.7c-6.33-9.16-7.01-21.1-1.77-30.93 2.03-3.81 4.84-7.09 8.2-9.65 1.164-.891 2.41-1.687 3.701-2.398-7.185 2.15-14.447 4.071-21.779 5.739l-2.83.65c-2.6.59-5.08 1.52-7.39 2.75-1.43.76-2.8 1.64-4.08 2.62-3.36 2.56-6.17 5.84-8.2 9.65-5.24 9.83-4.56 21.77 1.77 30.93l4.63 6.7 5.704 17.498 31.495-12.071z" fill="#fd94d3"/></g><g><path d="m189.904 248.099-7.294-19.696-2.48-20.95v-15.19c0-7.62 4.1-14.46 10.44-18.15.161-.094.331-.176.495-.266l-28.141 7.039c-1.96.49-3.8 1.25-5.48 2.23-6.34 3.69-10.44 10.53-10.44 18.15v15.19l2.48 20.95 7.294 19.696 182.635-27.806.329-4.01z" fill="#fe74c5"/></g><path d="m346.783 168.317c11.83 13.16 14.6 32.14 7.01 48.14l-148.34 69.61-55.97-48.66 74.21-20.95 18.3-6.3c32.29-11.11 63.87-24.17 94.56-39.13 2.87-1.4 5.58-3.12 8.06-5.14z" fill="#ffbfe7"/></g></g></g><path d="m344.609 239.918h-195.126v28.908l50.82 214.98c1.76 7.48 8.44 12.76 16.13 12.76h64.7c7.69 0 14.37-5.28 16.13-12.76l50.82-214.98z" fill="#fcd89f"/><g><path d="m251.674 448.447-42.462-179.62v-28.909h-59.729v28.909l42.462 179.62z" fill="#fbce85"/></g><path d="m347.295 268.828h-198.023c-10.506 0-19.022-8.516-19.022-19.022v-14.332c0-10.506 8.516-19.022 19.022-19.022h198.023c10.506 0 19.022 8.516 19.022 19.022v14.332c0 10.506-8.517 19.022-19.022 19.022z" fill="#fbce85"/><path d="m222.097 252.165c-18.421 0-33.354-14.933-33.354-33.354 0-.8.065-1.584.161-2.358h-39.633c-10.506 0-19.022 8.516-19.022 19.022v14.332c0 10.506 8.516 19.022 19.022 19.022h198.023c9.705 0 17.708-7.272 18.871-16.663z" fill="#fbc773"/><g id="XMLID_153_"><g><path d="m305.623 448.447-8.36 35.36c-1.76 7.48-8.44 12.76-16.13 12.76h-64.7c-7.69 0-14.37-5.28-16.13-12.76l-8.36-35.36z" fill="#fbce85"/></g></g><path d="m260.032 483.807-8.359-35.36h-59.73l8.36 35.36c1.76 7.48 8.44 12.76 16.13 12.76h59.729l-4.579-.655c-5.646-1.622-10.153-6.164-11.551-12.105z" fill="#fbc773"/></g></svg>